<svg width="125" height="75" viewBox="0 0 125 75" fill="none" xmlns="http://www.w3.org/2000/svg">
<rect width="125" height="75" rx="37.5" fill="#FFD0D0"/>
<path d="M54.738 29.2869L52.4833 23.6978L52.5454 14.6502C52.5454 14.6502 58.6185 13.74 61.8081 13.3015C64.9977 12.863 71.3398 10.1905 77.1233 12.7513C83.6929 15.6596 87.1762 22.3905 85.4221 32.6503C83.668 42.91 75.9774 51.213 69.052 52.1066C65.6224 52.5493 65.0102 51.2171 62.3832 51.4075C60.2567 51.5605 60.3726 52.6651 56.7444 52.4789C53.1163 52.2928 50.0383 50.9441 48.2263 48.6936C46.4143 46.443 54.738 29.2869 54.738 29.2869Z" fill="#DC0D28"/>
<path d="M44.7265 16.4001C39.5263 20.7439 37.073 29.8991 41.2224 39.6707C44.9126 48.3667 50.8079 50.853 50.8079 50.853C50.8079 50.853 61.1173 50.1787 68.3115 46.2982C75.5058 42.4177 82.4518 35.662 82.4518 26.7798C82.4518 17.8977 77.8225 14.8942 77.3219 14.7701C76.8213 14.646 74.757 15.9574 72.4403 16.0195C70.1235 16.0815 68.3115 15.5189 68.3115 15.5189L60.9932 17.9597L54.1506 16.3628C54.1506 16.3628 53.9313 15.4072 54.6718 15.0183C56.2108 14.2157 59.4252 15.581 60.7408 15.5189C62.0564 15.4568 63.1816 13.7028 63.1816 13.7028C63.1816 13.7028 60.1161 13.3883 59.0529 13.1401C57.9897 12.9002 50.7955 11.3323 44.7265 16.4001Z" fill="#FF5117"/>
<path d="M61.6054 16.454C59.7106 16.5408 54.6304 14.7578 54.1712 16.152C53.683 17.633 57.4642 19.5981 62.0687 19.2754C66.8718 18.9403 69.8628 16.2843 69.1016 14.8529C68.3446 13.4215 65.2294 16.2843 61.6054 16.454Z" fill="#8D1D0A"/>
<path d="M57.0588 8.11367C57.0588 8.11367 56.2604 8.0723 55.8384 7.90268C55.4164 7.73306 54.8207 7.74548 54.8703 7.01736C54.9531 5.79695 56.5169 4.54343 56.8933 4.32004C57.609 3.89806 58.8626 4.0139 59.3383 4.32004C59.9299 4.70064 59.632 6.09067 59.632 6.09067C59.632 6.09067 61.7378 9.25134 62.0315 11.1875C62.3004 12.954 63.4008 18.1087 61.7378 18.4314C60.2195 18.7251 60.8524 14.766 60.0126 12.8299C59.5079 11.6715 58.7922 10.4304 58.1179 9.58644C57.736 9.11691 57.3824 8.62512 57.0588 8.11367Z" fill="#513630"/>
<path d="M79.5518 3.18655C79.7214 2.89282 79.3822 2.59496 77.9921 2.55359C76.6021 2.51222 69.019 1.79652 64.7248 7.14566C61.6386 10.9889 62.1143 14.2654 62.1143 14.2654L64.9357 14.3937L79.5518 3.18655Z" fill="#2F7C31"/>
<path d="M70.2393 8.44879C72.7918 6.68643 79.5889 2.84729 79.5889 2.84729C79.5889 2.84729 79.5889 3.81535 79.1669 4.6593C78.7449 5.50325 77.3135 9.67334 71.5011 12.7058C66.0443 15.552 62.4038 14.8529 62.1059 14.3482C61.8163 13.8434 66.0278 11.3571 70.2393 8.44879Z" fill="#709F19"/>
<path d="M51.4987 17.633C50.3693 16.0072 47.6347 16.4664 45.1815 19.7387C42.0208 23.9502 42.1904 29.5517 44.3375 29.8909C46.4681 30.226 44.5899 28.0789 47.8746 23.8261C50.3899 20.5703 52.9301 19.6974 51.4987 17.633Z" fill="#FFD2B1"/>
</svg>
